<svg width="95" height="49" viewBox="0 0 95 49" fill="none" xmlns="http://www.w3.org/2000/svg">
<path fill-rule="evenodd" clip-rule="evenodd" d="M0.0247034 44.1367L3.09515 44.1414L3.11546 31.9951C3.2745 32.2479 3.38005 32.5257 3.51035 32.8114L7.7749 42.2771C8.07082 42.9245 8.28221 43.3966 8.77035 43.7803C9.25277 44.1595 9.96446 44.3122 10.7292 44.3214C12.5801 44.3435 13.1393 43.642 13.7229 42.3181C14.2339 41.1585 14.7728 40.0383 15.2742 38.8745C15.685 37.9213 18.274 32.1323 18.4006 32.0182L18.4032 44.1376L21.4882 44.1411C21.5536 43.6382 21.5039 33.7067 21.5041 32.4685C21.5042 31.6369 21.517 31.0635 21.0892 30.5083C20.4463 29.6743 17.18 28.9258 15.8861 30.5729C15.5365 31.0179 15.3264 31.5227 15.0628 32.1153C14.8374 32.6219 10.8243 41.649 10.6852 41.8294C10.5584 41.676 10.088 40.5101 9.96661 40.2258C8.80396 37.5045 7.54592 34.7542 6.41717 32.0493C5.91244 30.8398 5.47922 29.9828 4.10862 29.6744C2.9404 29.4117 1.0007 29.8047 0.445195 30.4939C0.0440117 30.9917 0.0164091 31.6038 0.0165521 32.3793V41.7809C0.0165521 42.5276 -0.0256411 43.406 0.0247034 44.1367Z" fill="white"/>
<path fill-rule="evenodd" clip-rule="evenodd" d="M65.3518 42.1312C64.2766 42.1463 62.0212 42.2686 61.2089 41.8507C60.7339 41.6064 60.4013 41.2306 60.3279 40.5346C60.2758 40.0405 60.3197 34.7589 60.3195 33.9834C60.319 33.0994 60.3761 32.7934 60.9273 32.3871C61.3763 32.0563 62.0389 31.9662 62.706 31.9586C64.1582 31.9418 65.6288 31.9515 67.0821 31.9581C67.7564 31.9611 68.4115 32.0338 68.8772 32.3699C69.3762 32.7303 69.4906 33.1301 69.4902 33.9387L69.4912 40.4902C69.4849 41.1026 69.0926 41.7243 68.6409 41.82L66.6082 39.9821C66.4825 39.8524 66.5063 39.8182 66.2821 39.8015L62.8646 39.8076C62.9408 39.9423 63.6202 40.5156 63.821 40.7133C64.0946 40.9824 65.2502 41.9148 65.3518 42.1312V42.1312ZM73.5495 46.2649C73.503 46.1506 72.9515 45.6755 72.8315 45.5785L70.5646 43.5129C71.1158 43.2147 71.3588 43.1393 71.7359 42.7257C72.0443 42.3875 72.2636 41.9231 72.3416 41.3331C72.4845 40.254 72.387 38.5297 72.387 37.3696C72.387 36.0342 72.3981 34.6939 72.3874 33.3591C72.3545 29.3044 66.8487 29.8924 63.867 29.8924C61.8818 29.8924 58.8746 29.7174 57.5069 31.5579C56.8115 32.4938 56.9743 33.6815 56.9743 35.0081C56.9743 36.3449 56.9743 37.6816 56.9743 39.0182C56.9743 40.3802 56.8204 41.5221 57.5135 42.5064C58.0316 43.2421 58.9127 43.6862 60.0552 43.9792C61.3163 44.3026 64.3311 44.2368 65.8323 44.1502C67.8681 44.0326 67.263 43.865 68.1705 44.6157L69.7596 46.0599C70.0146 46.3152 70.0523 46.2677 70.5202 46.2665L73.5495 46.2649V46.2649Z" fill="white"/>
<path fill-rule="evenodd" clip-rule="evenodd" d="M68.5109 21.1089C69.0435 21.7385 69.0408 22.9491 70.9653 24.8067C71.1073 24.9437 71.1995 25.0707 71.3398 25.19L72.6108 26.2386C73.0156 26.5704 73.7474 27.4971 74.3048 27.6065C72.7584 26.2082 72.1105 25.3151 70.9639 23.3835C70.1153 21.9544 69.6725 21.1322 69.0271 19.6118C68.8613 19.2215 68.5838 18.3791 68.48 18.2482C68.3254 18.3064 67.8138 19.0189 67.676 19.2035C66.9674 20.1532 66.8498 21.4669 66.7214 22.6658C66.7038 22.8298 66.6993 23.3253 66.5803 23.4211C66.3391 23.5625 65.9031 23.1155 65.7908 22.9738C65.6238 22.763 65.4404 22.3681 65.3147 22.065C65.0292 21.377 64.8485 20.7604 64.7267 19.9419C64.0953 15.6943 66.0948 14.1096 65.587 12.9287C65.3503 12.3784 64.9727 12.3313 64.4037 11.3927C63.22 9.44002 63.0411 7.10704 62.0139 5.57783C61.6477 5.0328 61.2678 4.47435 60.8712 3.99968C60.5393 3.60236 59.0754 1.83239 60.0756 1.32717C60.8951 0.913295 63.2261 2.1956 63.9607 2.69982C64.2535 2.90076 64.4398 3.10542 64.7253 3.31892C65.1142 3.60963 65.3257 3.48947 65.8249 3.56568C67.3637 3.80087 67.2156 3.41582 69.2489 4.28211C71.6721 5.31466 73.831 7.14243 75.547 8.91725L76.1674 9.63426C77.0534 10.6879 78.3328 12.5231 78.8758 13.7465C79.1683 14.4054 79.3917 15.0823 79.6756 15.7121L81.4101 19.4192C81.7047 20.0712 81.9818 20.6619 82.3329 21.2157C82.8152 21.9765 82.9385 22.1025 83.9033 22.4116C84.626 22.6431 85.2394 22.871 85.9331 23.107C87.1487 23.5203 88.1807 24.4455 89.3032 25.1768C89.7335 25.4572 90.7246 25.9764 90.7792 26.4408C89.2659 26.4952 88.6067 26.3994 87.1072 26.7868C86.7147 26.8881 86.4253 27.0261 86.079 27.1384C85.7412 27.248 85.2682 27.3134 85.2376 27.6251C85.2283 27.7203 85.5708 28.3974 85.6448 28.5166C86.32 29.6041 87.3975 30.4252 88.492 31.0651C89.8753 31.8742 90.346 31.7721 92.0111 32.9901C92.2735 33.182 92.5381 33.374 92.7767 33.5642C92.9935 33.737 93.2817 34.0868 93.5559 34.1551C93.218 33.2224 92.8852 33.1553 92.2615 32.3841C91.6479 31.6254 90.6809 30.7379 89.8561 30.1944C89.0106 29.6374 87.6377 29.0601 87.2664 28.1463C87.4134 28.0608 89.4608 27.6216 89.7863 27.5824C90.4866 27.4981 91.72 27.3399 92.3548 27.0324C92.3898 26.7568 92.0428 26.4422 91.758 26.0692C90.9487 25.0087 88.5351 23.3013 87.3702 22.5609C86.931 22.2818 85.3353 21.5375 84.7217 21.2843C84.5299 21.2051 84.3083 21.1428 84.1346 21.065C83.8079 20.9185 83.6064 20.5276 83.4432 20.1973C83.0821 19.4656 82.7555 18.7741 82.399 18.0754C81.6863 16.679 81.0494 15.2045 80.4433 13.7015C80.2868 13.3133 80.1472 12.9788 79.9648 12.62C79.4707 11.6474 78.1188 9.76285 77.3834 8.91211C75.4351 6.65805 73.8202 5.40301 71.3425 3.84369C69.7609 2.84838 68.381 2.4522 66.5088 2.32947C65.4998 2.26339 65.715 2.3593 64.8749 1.65328C63.9556 0.880755 61.0499 -0.540127 59.6296 0.214129C59.0239 0.535811 58.4807 1.37284 58.6748 2.36172C58.9192 3.60649 60.3021 4.93318 61.1476 6.21934C61.6238 6.94406 61.7145 7.62881 62.0273 8.50837C62.4853 9.79581 63.1575 11.7456 64.0385 12.7803C64.7662 13.6349 64.6166 12.8241 64.1295 14.952C63.6476 17.0572 63.3149 18.1185 63.7403 20.5148C64.0713 22.3792 65.4545 25.4464 67.2776 24.6446C68.5 24.107 68.0658 21.8028 68.5109 21.1089V21.1089Z" fill="white"/>
<path fill-rule="evenodd" clip-rule="evenodd" d="M35.7063 44.0485C35.7557 45.3947 35.7959 46.0076 34.5043 46.2966C33.7109 46.4741 28.8048 46.3858 27.6087 46.3858L24.1549 46.397L24.1456 48.445C24.4617 48.5088 30.8554 48.465 31.3595 48.4651C33.9581 48.4657 38.7481 48.7082 38.8372 45.078C38.8665 43.8861 38.8419 42.6643 38.8419 41.4689C38.8419 39.0379 38.8419 36.6068 38.8419 34.1757L35.7294 34.1767V42.1736C35.1789 42.2229 32.4126 42.184 31.6275 42.184C30.6295 42.184 28.4639 42.3266 27.7435 41.9135C27.1953 41.5989 27.1823 41.2323 27.182 40.4442C27.1814 39.4563 27.2228 34.7748 27.17 34.2012H24.0903C24.096 35.9952 24.091 37.7727 24.0921 39.5529C24.0931 41.1245 23.7928 42.3019 25.6947 43.2904C27.1304 44.0368 28.522 44.0426 30.2878 44.0425C32.0484 44.0425 33.9651 43.9707 35.7063 44.0485V44.0485Z" fill="white"/>
<path fill-rule="evenodd" clip-rule="evenodd" d="M51.8653 39.152V40.8005C51.8653 41.3736 51.3415 41.762 50.875 41.9175C50.271 42.1188 49.5823 42.0819 48.9083 42.0819L41.225 42.0817L41.226 44.1443L50.019 44.1465C52.0944 44.1465 54.5384 43.2956 54.935 41.5576C55.0437 41.0808 54.9955 40.2565 54.9957 39.7311C54.9957 39.1447 55.0646 38.4942 54.8213 38.0187C54.4361 37.266 53.5923 36.7418 52.6668 36.4255C50.308 35.6195 47.4141 36.2902 45.638 35.9551C44.2783 35.6985 44.3607 34.8605 44.3582 33.4931C44.3558 32.1699 44.8139 31.9311 46.5416 31.9294L55.1041 31.9277L55.1154 29.8821C54.6218 29.829 47.4261 29.8681 46.7201 29.8679C45.2719 29.8677 44.2784 29.893 43.0826 30.4407C41.0113 31.3895 41.2176 32.8538 41.2593 34.9643C41.2772 35.8689 41.8101 36.4691 42.457 36.9002C42.6708 37.0428 42.9104 37.1699 43.1525 37.2773C45.7251 38.417 49.072 37.582 50.8086 38.0519C51.3554 38.1998 51.8653 38.5464 51.8653 39.152V39.152Z" fill="white"/>
<path fill-rule="evenodd" clip-rule="evenodd" d="M80.0313 44.1464L88.0642 44.1454L88.0722 42.0818L82.1748 42.0816C81.1052 42.0819 79.0363 42.1967 78.2062 41.8224C77.6733 41.5823 77.4479 41.2282 77.4317 40.4889C77.4163 39.7827 77.4313 39.0582 77.4313 38.3499C77.4313 35.5278 77.4313 32.7057 77.4313 29.8838L74.3288 29.8685C74.3288 33.2109 74.3288 36.5378 74.3288 39.8648C74.3288 41.3979 74.4261 42.3916 75.8957 43.2787C76.9008 43.8856 78.6629 44.1464 80.0313 44.1464Z" fill="white"/>
<path fill-rule="evenodd" clip-rule="evenodd" d="M92.2242 42.2264C92.4401 42.5802 92.733 42.9355 92.9094 43.3141C92.2898 43.3442 92.4257 43.3289 92.1717 42.8999C92.0595 42.7102 91.8679 42.3555 91.7306 42.2038L91.3549 42.2016L91.327 43.3208L90.907 43.3201L90.894 40.7311C91.4433 40.6902 92.4273 40.6416 92.7262 40.9648C92.8746 41.1254 93.1678 41.8579 92.4045 42.1345C92.3978 42.137 92.31 42.1712 92.3097 42.1713C92.2292 42.2116 92.2706 42.1825 92.2242 42.2264ZM91.5139 40.2504C89.1959 40.6848 89.7792 44.1537 92.1106 43.8029C94.37 43.4629 93.8637 39.8101 91.5139 40.2504Z" fill="black"/>
<path fill-rule="evenodd" clip-rule="evenodd" d="M91.5139 40.2503C93.8636 39.81 94.3699 43.4629 92.1106 43.8028C89.7792 44.1536 89.1959 40.6847 91.5139 40.2503ZM91.5667 39.7637C90.3361 39.9047 89.386 40.9124 89.5443 42.313C89.6798 43.5097 90.7808 44.462 92.1293 44.2788C93.2878 44.1215 94.2585 43.0964 94.0749 41.7112C93.918 40.5275 92.8725 39.6139 91.5667 39.7637V39.7637Z" fill="white"/>
<path fill-rule="evenodd" clip-rule="evenodd" d="M91.3563 41.0952C91.6217 41.0675 92.241 41.0226 92.3725 41.2815C92.6397 41.8879 91.7935 41.8729 91.3324 41.8238L91.3563 41.0952ZM92.2242 42.2264C92.2707 42.1824 92.2292 42.2115 92.3097 42.1713C92.31 42.1711 92.3978 42.1369 92.4045 42.1345C93.1678 41.8579 92.8746 41.1253 92.7262 40.9648C92.4273 40.6415 91.4433 40.6902 90.894 40.731L90.907 43.32L91.327 43.3207L91.3549 42.2015L91.7306 42.2037C91.8679 42.3554 92.0595 42.7102 92.1717 42.8999C92.4257 43.3289 92.2898 43.3441 92.9094 43.314C92.733 42.9354 92.4401 42.5802 92.2242 42.2264Z" fill="white"/>
<path fill-rule="evenodd" clip-rule="evenodd" d="M65.6079 5.95579C66.2584 6.89601 66.4599 6.81138 66.9429 8.10467C67.1831 7.97209 67.3488 7.76643 67.4398 7.42991C67.6241 6.74687 67.2167 6.24979 66.6702 5.92097C66.4047 5.76127 65.9181 5.9047 65.6079 5.95579V5.95579Z" fill="white"/>
<path fill-rule="evenodd" clip-rule="evenodd" d="M91.3324 41.8237C91.7935 41.8728 92.6396 41.8878 92.3725 41.2814C92.241 41.0225 91.6217 41.0675 91.3563 41.0951L91.3324 41.8237Z" fill="black"/>
</svg>
